<svg width="40" height="40" viewBox="0 0 40 40" fill="none" xmlns="http://www.w3.org/2000/svg">
    <path d="M30 2.8292C33.0404 4.58458 35.5652 7.10935 37.3205 10.1498C39.0759 13.1902 40 16.6391 40 20.1498C40 23.6606 39.0758 27.1095 37.3204 30.1499C35.565 33.1903 33.0402 35.715 29.9998 37.4703C26.9594 39.2257 23.5104 40.1498 19.9997 40.1497C16.4889 40.1497 13.04 39.2255 9.99967 37.47C6.9593 35.7146 4.43458 33.1898 2.67927 30.1493C0.92396 27.1089 -8.91794e-05 23.66 6.4553e-09 20.1492L0.0100002 19.5012C0.122006 16.0472 1.1271 12.6811 2.92728 9.73118C4.72746 6.78125 7.26131 4.3481 10.2818 2.66896C13.3023 0.989825 16.7063 0.121992 20.162 0.150075C23.6177 0.178157 27.0072 1.10119 30 2.8292ZM20 8.1492C15.896 8.1492 12.464 11.0472 10.902 15.1492H10C9.49024 15.1498 8.99994 15.345 8.62926 15.6949C8.25859 16.0448 8.03553 16.5231 8.00566 17.032C7.97578 17.5409 8.14135 18.042 8.46853 18.4329C8.79571 18.8238 9.25981 19.075 9.766 19.1352L10.034 19.1492C9.98827 19.8151 9.98827 20.4833 10.034 21.1492H10C9.46957 21.1492 8.96086 21.3599 8.58579 21.735C8.21071 22.1101 8 22.6188 8 23.1492C8 23.6796 8.21071 24.1883 8.58579 24.5634C8.96086 24.9385 9.46957 25.1492 10 25.1492H10.904C12.464 29.2552 15.896 32.1492 20 32.1492C22.282 32.1492 24.434 31.2352 26.168 29.6092C26.5552 29.2464 26.7824 28.7446 26.7997 28.2143C26.817 27.6839 26.6228 27.1684 26.26 26.7812C25.8972 26.394 25.3954 26.1668 24.8651 26.1495C24.3347 26.1322 23.8192 26.3264 23.432 26.6892C22.414 27.6452 21.228 28.1492 20 28.1492C18.156 28.1492 16.448 26.9932 15.33 25.1512L18 25.1492C18.5304 25.1492 19.0391 24.9385 19.4142 24.5634C19.7893 24.1883 20 23.6796 20 23.1492C20 22.6188 19.7893 22.1101 19.4142 21.735C19.0391 21.3599 18.5304 21.1492 18 21.1492H14.046C13.9835 20.484 13.9835 19.8144 14.046 19.1492H18C18.5304 19.1492 19.0391 18.9385 19.4142 18.5634C19.7893 18.1883 20 17.6796 20 17.1492C20 16.6188 19.7893 16.1101 19.4142 15.735C19.0391 15.3599 18.5304 15.1492 18 15.1492H15.328C16.448 13.3072 18.156 12.1492 20 12.1492C21.23 12.1492 22.416 12.6532 23.434 13.6092C23.8212 13.972 24.3367 14.1662 24.8671 14.1489C25.3974 14.1316 25.8992 13.9044 26.262 13.5172C26.6248 13.13 26.819 12.6145 26.8017 12.0841C26.7844 11.5538 26.5572 11.052 26.17 10.6892C24.436 9.0652 22.284 8.1492 20 8.1492Z" fill="#1F3749"/>
</svg>
